<mxfile host="app.diagrams.net" modified="2021-03-23T14:10:36.578Z" agent="5.0 (Windows NT 10.0; Win64; x64) AppleWebKit/537.36 (KHTML, like Gecko) Chrome/79.0.3945.88 Safari/537.36" etag="fQ7uO-YT2lmm_h_h8iMS" version="14.5.0" type="github">
  <diagram id="6I0OCvxSQrVGMHxT2VVA" name="Page-1">
    <mxGraphModel dx="2062" dy="1154" grid="1" gridSize="10" guides="1" tooltips="1" connect="1" arrows="1" fold="1" page="1" pageScale="1" pageWidth="850" pageHeight="1100" math="0" shadow="0">
      <root>
        <mxCell id="0" />
        <mxCell id="1" parent="0" />
        <mxCell id="dKdSaXE48SgPbhcamS2K-30" value="" style="whiteSpace=wrap;html=1;strokeColor=none;strokeWidth=1;fillColor=#f5f5f5;fontSize=14;" parent="1" vertex="1">
          <mxGeometry x="312.5" y="580" width="1075" height="300" as="geometry" />
        </mxCell>
        <mxCell id="dKdSaXE48SgPbhcamS2K-31" value="" style="whiteSpace=wrap;html=1;strokeColor=none;strokeWidth=1;fillColor=#f5f5f5;fontSize=14;" parent="1" vertex="1">
          <mxGeometry x="312.5" y="340" width="1075" height="230" as="geometry" />
        </mxCell>
        <mxCell id="dKdSaXE48SgPbhcamS2K-32" value="" style="whiteSpace=wrap;html=1;strokeColor=none;strokeWidth=1;fillColor=#f5f5f5;fontSize=14;" parent="1" vertex="1">
          <mxGeometry x="312.5" y="130" width="1075" height="200" as="geometry" />
        </mxCell>
        <mxCell id="dKdSaXE48SgPbhcamS2K-49" value="北极星" style="shape=component;align=center;fillColor=#1ba1e2;fontSize=14;strokeColor=#006EAF;fontColor=#ffffff;" parent="1" vertex="1">
          <mxGeometry x="636.25" y="760" width="185" height="80" as="geometry" />
        </mxCell>
        <mxCell id="dKdSaXE48SgPbhcamS2K-63" value="Title" style="text;strokeColor=none;fillColor=none;html=1;fontSize=24;fontStyle=1;verticalAlign=middle;align=center;" parent="1" vertex="1">
          <mxGeometry x="50" y="70" width="1590" height="40" as="geometry" />
        </mxCell>
        <mxCell id="M6epQu14QFqbGMzQkXgo-5" value="Envoy(B)" style="rounded=0;whiteSpace=wrap;html=1;fillColor=#99FFFF;" vertex="1" parent="1">
          <mxGeometry x="1087.5" y="460" width="165" height="80" as="geometry" />
        </mxCell>
        <mxCell id="M6epQu14QFqbGMzQkXgo-28" style="edgeStyle=orthogonalEdgeStyle;rounded=0;orthogonalLoop=1;jettySize=auto;html=1;exitX=0.5;exitY=0;exitDx=0;exitDy=0;entryX=0;entryY=0.5;entryDx=0;entryDy=0;dashed=1;dashPattern=1 1;strokeWidth=2;" edge="1" parent="1" source="M6epQu14QFqbGMzQkXgo-2" target="M6epQu14QFqbGMzQkXgo-24">
          <mxGeometry relative="1" as="geometry">
            <Array as="points">
              <mxPoint x="1073" y="400" />
            </Array>
          </mxGeometry>
        </mxCell>
        <mxCell id="M6epQu14QFqbGMzQkXgo-33" value="(3)" style="edgeLabel;html=1;align=center;verticalAlign=middle;resizable=0;points=[];" vertex="1" connectable="0" parent="M6epQu14QFqbGMzQkXgo-28">
          <mxGeometry x="-0.0222" y="2" relative="1" as="geometry">
            <mxPoint x="1" as="offset" />
          </mxGeometry>
        </mxCell>
        <mxCell id="M6epQu14QFqbGMzQkXgo-2" value="ingress" style="rounded=0;whiteSpace=wrap;html=1;fillColor=#99FFFF;" vertex="1" parent="1">
          <mxGeometry x="1032.5" y="490" width="80" height="20" as="geometry" />
        </mxCell>
        <mxCell id="M6epQu14QFqbGMzQkXgo-6" value="egress" style="rounded=0;whiteSpace=wrap;html=1;fillColor=#99FFFF;" vertex="1" parent="1">
          <mxGeometry x="1220" y="490" width="80" height="20" as="geometry" />
        </mxCell>
        <mxCell id="M6epQu14QFqbGMzQkXgo-11" value="Envoy(A)" style="rounded=0;whiteSpace=wrap;html=1;fillColor=#99FFFF;" vertex="1" parent="1">
          <mxGeometry x="1087.5" y="650" width="165" height="80" as="geometry" />
        </mxCell>
        <mxCell id="M6epQu14QFqbGMzQkXgo-12" value="ingress" style="rounded=0;whiteSpace=wrap;html=1;fillColor=#99FFFF;" vertex="1" parent="1">
          <mxGeometry x="1032.5" y="680" width="80" height="20" as="geometry" />
        </mxCell>
        <mxCell id="M6epQu14QFqbGMzQkXgo-20" style="edgeStyle=orthogonalEdgeStyle;rounded=0;orthogonalLoop=1;jettySize=auto;html=1;exitX=0.5;exitY=0;exitDx=0;exitDy=0;strokeWidth=2;dashed=1;dashPattern=1 1;" edge="1" parent="1" source="M6epQu14QFqbGMzQkXgo-13" target="M6epQu14QFqbGMzQkXgo-2">
          <mxGeometry relative="1" as="geometry" />
        </mxCell>
        <mxCell id="M6epQu14QFqbGMzQkXgo-31" value="(2)" style="edgeLabel;html=1;align=center;verticalAlign=middle;resizable=0;points=[];" vertex="1" connectable="0" parent="M6epQu14QFqbGMzQkXgo-20">
          <mxGeometry x="-0.126" relative="1" as="geometry">
            <mxPoint x="1" as="offset" />
          </mxGeometry>
        </mxCell>
        <mxCell id="M6epQu14QFqbGMzQkXgo-40" style="edgeStyle=orthogonalEdgeStyle;rounded=0;orthogonalLoop=1;jettySize=auto;html=1;exitX=0.25;exitY=1;exitDx=0;exitDy=0;entryX=0.5;entryY=0;entryDx=0;entryDy=0;strokeColor=#000000;strokeWidth=1;" edge="1" parent="1" source="M6epQu14QFqbGMzQkXgo-13" target="M6epQu14QFqbGMzQkXgo-26">
          <mxGeometry relative="1" as="geometry" />
        </mxCell>
        <mxCell id="M6epQu14QFqbGMzQkXgo-41" value="(6)" style="edgeLabel;html=1;align=center;verticalAlign=middle;resizable=0;points=[];" vertex="1" connectable="0" parent="M6epQu14QFqbGMzQkXgo-40">
          <mxGeometry x="-0.1533" y="2" relative="1" as="geometry">
            <mxPoint x="1" as="offset" />
          </mxGeometry>
        </mxCell>
        <mxCell id="M6epQu14QFqbGMzQkXgo-13" value="egress" style="rounded=0;whiteSpace=wrap;html=1;fillColor=#99FFFF;" vertex="1" parent="1">
          <mxGeometry x="1227.5" y="680" width="80" height="20" as="geometry" />
        </mxCell>
        <mxCell id="M6epQu14QFqbGMzQkXgo-29" style="edgeStyle=orthogonalEdgeStyle;rounded=0;orthogonalLoop=1;jettySize=auto;html=1;exitX=0;exitY=0.25;exitDx=0;exitDy=0;entryX=0.25;entryY=0;entryDx=0;entryDy=0;" edge="1" parent="1" source="M6epQu14QFqbGMzQkXgo-24" target="M6epQu14QFqbGMzQkXgo-2">
          <mxGeometry relative="1" as="geometry" />
        </mxCell>
        <mxCell id="M6epQu14QFqbGMzQkXgo-34" value="(4)" style="edgeLabel;html=1;align=center;verticalAlign=middle;resizable=0;points=[];" vertex="1" connectable="0" parent="M6epQu14QFqbGMzQkXgo-29">
          <mxGeometry x="-0.0034" y="2" relative="1" as="geometry">
            <mxPoint y="1" as="offset" />
          </mxGeometry>
        </mxCell>
        <mxCell id="M6epQu14QFqbGMzQkXgo-24" value="Service(B)" style="rounded=1;whiteSpace=wrap;html=1;fillColor=#AFFFAF;" vertex="1" parent="1">
          <mxGeometry x="1095" y="370" width="145" height="60" as="geometry" />
        </mxCell>
        <mxCell id="M6epQu14QFqbGMzQkXgo-27" style="edgeStyle=orthogonalEdgeStyle;rounded=0;orthogonalLoop=1;jettySize=auto;html=1;exitX=1;exitY=0.5;exitDx=0;exitDy=0;strokeWidth=2;dashed=1;dashPattern=1 1;" edge="1" parent="1" source="M6epQu14QFqbGMzQkXgo-26" target="M6epQu14QFqbGMzQkXgo-13">
          <mxGeometry relative="1" as="geometry" />
        </mxCell>
        <mxCell id="M6epQu14QFqbGMzQkXgo-30" value="(1)" style="edgeLabel;html=1;align=center;verticalAlign=middle;resizable=0;points=[];" vertex="1" connectable="0" parent="M6epQu14QFqbGMzQkXgo-27">
          <mxGeometry x="-0.051" relative="1" as="geometry">
            <mxPoint x="1" as="offset" />
          </mxGeometry>
        </mxCell>
        <mxCell id="M6epQu14QFqbGMzQkXgo-42" style="edgeStyle=orthogonalEdgeStyle;rounded=0;orthogonalLoop=1;jettySize=auto;html=1;exitX=0;exitY=0.5;exitDx=0;exitDy=0;dashed=1;dashPattern=1 4;strokeColor=#000000;strokeWidth=1;" edge="1" parent="1" source="M6epQu14QFqbGMzQkXgo-26" target="dKdSaXE48SgPbhcamS2K-49">
          <mxGeometry relative="1" as="geometry" />
        </mxCell>
        <mxCell id="M6epQu14QFqbGMzQkXgo-43" value="注册服务暴露地址&lt;br&gt;携带监听地址" style="edgeLabel;html=1;align=center;verticalAlign=middle;resizable=0;points=[];" vertex="1" connectable="0" parent="M6epQu14QFqbGMzQkXgo-42">
          <mxGeometry x="-0.0775" relative="1" as="geometry">
            <mxPoint as="offset" />
          </mxGeometry>
        </mxCell>
        <mxCell id="M6epQu14QFqbGMzQkXgo-26" value="Service (A)" style="rounded=1;whiteSpace=wrap;html=1;fillColor=#AFFFAF;" vertex="1" parent="1">
          <mxGeometry x="1095" y="770" width="145" height="60" as="geometry" />
        </mxCell>
        <mxCell id="M6epQu14QFqbGMzQkXgo-35" style="edgeStyle=orthogonalEdgeStyle;rounded=0;orthogonalLoop=1;jettySize=auto;html=1;exitX=0.25;exitY=1;exitDx=0;exitDy=0;entryX=0.25;entryY=0;entryDx=0;entryDy=0;" edge="1" parent="1" source="M6epQu14QFqbGMzQkXgo-2" target="M6epQu14QFqbGMzQkXgo-13">
          <mxGeometry relative="1" as="geometry">
            <Array as="points">
              <mxPoint x="1053" y="620" />
              <mxPoint x="1248" y="620" />
            </Array>
          </mxGeometry>
        </mxCell>
        <mxCell id="M6epQu14QFqbGMzQkXgo-36" value="(5)" style="edgeLabel;html=1;align=center;verticalAlign=middle;resizable=0;points=[];" vertex="1" connectable="0" parent="M6epQu14QFqbGMzQkXgo-35">
          <mxGeometry x="0.011" y="-1" relative="1" as="geometry">
            <mxPoint as="offset" />
          </mxGeometry>
        </mxCell>
        <mxCell id="M6epQu14QFqbGMzQkXgo-46" value="ingress" style="rounded=0;whiteSpace=wrap;html=1;fillColor=#99FFFF;" vertex="1" parent="1">
          <mxGeometry x="1032.5" y="490" width="80" height="20" as="geometry" />
        </mxCell>
        <mxCell id="M6epQu14QFqbGMzQkXgo-53" style="edgeStyle=none;rounded=0;orthogonalLoop=1;jettySize=auto;html=1;exitX=0.5;exitY=0;exitDx=0;exitDy=0;dashed=1;dashPattern=1 4;strokeColor=#000000;strokeWidth=1;" edge="1" parent="1" source="M6epQu14QFqbGMzQkXgo-47" target="M6epQu14QFqbGMzQkXgo-51">
          <mxGeometry relative="1" as="geometry" />
        </mxCell>
        <mxCell id="M6epQu14QFqbGMzQkXgo-55" style="edgeStyle=orthogonalEdgeStyle;rounded=0;orthogonalLoop=1;jettySize=auto;html=1;exitX=0.5;exitY=1;exitDx=0;exitDy=0;dashed=1;dashPattern=1 4;strokeColor=#000000;strokeWidth=1;" edge="1" parent="1" source="M6epQu14QFqbGMzQkXgo-47" target="dKdSaXE48SgPbhcamS2K-49">
          <mxGeometry relative="1" as="geometry" />
        </mxCell>
        <mxCell id="M6epQu14QFqbGMzQkXgo-47" value="Envoy(B)" style="rounded=0;whiteSpace=wrap;html=1;fillColor=#99FFFF;" vertex="1" parent="1">
          <mxGeometry x="646.25" y="440" width="165" height="80" as="geometry" />
        </mxCell>
        <mxCell id="M6epQu14QFqbGMzQkXgo-48" value="egress" style="rounded=0;whiteSpace=wrap;html=1;fillColor=#99FFFF;" vertex="1" parent="1">
          <mxGeometry x="778.75" y="470" width="80" height="20" as="geometry" />
        </mxCell>
        <mxCell id="M6epQu14QFqbGMzQkXgo-49" value="ingress" style="rounded=0;whiteSpace=wrap;html=1;fillColor=#99FFFF;" vertex="1" parent="1">
          <mxGeometry x="591.25" y="470" width="80" height="20" as="geometry" />
        </mxCell>
        <mxCell id="M6epQu14QFqbGMzQkXgo-52" style="edgeStyle=none;rounded=0;orthogonalLoop=1;jettySize=auto;html=1;exitX=1;exitY=0.5;exitDx=0;exitDy=0;dashed=1;dashPattern=1 4;strokeColor=#000000;strokeWidth=1;" edge="1" parent="1" source="M6epQu14QFqbGMzQkXgo-50" target="M6epQu14QFqbGMzQkXgo-51">
          <mxGeometry relative="1" as="geometry" />
        </mxCell>
        <mxCell id="M6epQu14QFqbGMzQkXgo-50" value="治理平台" style="shape=ext;double=1;rounded=0;whiteSpace=wrap;html=1;fillColor=#AFFFAF;" vertex="1" parent="1">
          <mxGeometry x="471.25" y="190" width="120" height="80" as="geometry" />
        </mxCell>
        <mxCell id="M6epQu14QFqbGMzQkXgo-51" value="通知变更服务" style="shape=ext;double=1;rounded=1;whiteSpace=wrap;html=1;fillColor=#AFFFAF;" vertex="1" parent="1">
          <mxGeometry x="668.75" y="190" width="120" height="80" as="geometry" />
        </mxCell>
        <mxCell id="M6epQu14QFqbGMzQkXgo-57" value="node id：本地IP整形&lt;br&gt;ingress:&lt;br&gt;&amp;nbsp;每个服务一个listener，监听端口为服务对外端口&lt;br&gt;route的地址为127.0.0.1+本地服务监听端口&lt;br&gt;egress：监听端口为固定端口15001，route为各个服务对外地址" style="shape=document;whiteSpace=wrap;html=1;boundedLbl=1;fillColor=#AFFFAF;align=left;" vertex="1" parent="1">
          <mxGeometry x="360" y="370" width="190" height="160" as="geometry" />
        </mxCell>
      </root>
    </mxGraphModel>
  </diagram>
</mxfile>
